#Comment line ignore any data following # character 
#Hierarchical Translation and Rotation (.htr) file 
[Header]	
#Header keywords are followed by a single value 
FileType HTR		#Single word string
DataType HTRS		#Translation followed by rotation and scale data
FileVersion 1		#integer
NumSegments 84		#integer
NumFrames 2		#integer
DataFrameRate 30		#integer, data frame rate in this file
EulerRotationOrder ZYX
CalibrationUnits mm
RotationUnits Degrees
GlobalAxisofGravity Y
BoneLengthAxis Y
ScaleFactor 1.00
[SegmentNames&Hierarchy]
#CHILD	PARENT
MASTER GLOBAL
root MASTER
chest root
L_mid_tent01 root
R_mid_tent01 root
spine01 root
Bip01_Neck chest
L_humerus chest
R_humerus chest
weapon_bone chest
Bip01_Head Bip01_Neck
eye_left_bone Bip01_Head
eye_right_bone Bip01_Head
L_forearm L_humerus
L_front_hand L_forearm
L_weapon_bone L_forearm
L_front_hand01_01 L_front_hand
L_front_hand02_01 L_front_hand
L_front_hand03_01 L_front_hand
L_front_hand01_02 L_front_hand01_01
L_front_hand02_02 L_front_hand02_01
L_front_hand03_02 L_front_hand03_01
R_forearm R_humerus
R_front_hand R_forearm
R_weapon_bone R_forearm
R_front_hand01_01 R_front_hand
R_front_hand02_01 R_front_hand
R_front_hand03_01 R_front_hand
R_front_hand01_02 R_front_hand01_01
R_front_hand02_02 R_front_hand02_01
R_front_hand03_02 R_front_hand03_01
null_rope01_connect L_mid_tent01
Rope1_Seg01 null_rope01_connect
Rope1_Seg02 Rope1_Seg01
Rope1_Seg03 Rope1_Seg02
Rope1_Seg04 Rope1_Seg03
Rope1_Seg05 Rope1_Seg04
Rope1_Seg06 Rope1_Seg05
Rope1_Seg07 Rope1_Seg06
Rope1_Seg09 Rope1_Seg07
L_mid_hand01 Rope1_Seg09
L_mid_hand02 Rope1_Seg09
L_mid_hand03 Rope1_Seg09
null_rope02_connect R_mid_tent01
Rope2_Seg01 null_rope02_connect
Rope2_Seg02 Rope2_Seg01
Rope2_Seg03 Rope2_Seg02
Rope2_Seg04 Rope2_Seg03
Rope2_Seg05 Rope2_Seg04
Rope2_Seg06 Rope2_Seg05
Rope2_Seg07 Rope2_Seg06
Rope2_Seg09 Rope2_Seg07
R_mid_hand01 Rope2_Seg09
R_mid_hand02 Rope2_Seg09
R_mid_hand03 Rope2_Seg09
spine02 spine01
spine03 spine02
pelvis spine03
null_rope03_connect pelvis
null_rope04_connect pelvis
Rope3_Seg01 null_rope03_connect
Rope3_Seg02 Rope3_Seg01
Rope3_Seg03 Rope3_Seg02
Rope3_Seg04 Rope3_Seg03
Rope3_Seg05 Rope3_Seg04
Rope3_Seg06 Rope3_Seg05
Rope3_Seg07 Rope3_Seg06
Rope3_Seg08 Rope3_Seg07
Rope3_Seg09 Rope3_Seg08
R_rear_hand01 Rope3_Seg09
R_rear_hand02 Rope3_Seg09
R_rear_hand03 Rope3_Seg09
Rope4_Seg01 null_rope04_connect
Rope4_Seg02 Rope4_Seg01
Rope4_Seg03 Rope4_Seg02
Rope4_Seg04 Rope4_Seg03
Rope4_Seg05 Rope4_Seg04
Rope4_Seg06 Rope4_Seg05
Rope4_Seg07 Rope4_Seg06
Rope4_Seg08 Rope4_Seg07
Rope4_Seg09 Rope4_Seg08
L_rear_hand01 Rope4_Seg09
L_rear_hand02 Rope4_Seg09
L_rear_hand03 Rope4_Seg09
[BasePosition]
#SegmentName Tx, Ty, Tz, Rx, Ry, Rz, BoneLength
MASTER 0.000000 0.000000 0.000000 -90.000000 0.000000 0.000000 10.000000 
root 0.000000 0.000000 0.000000 0.000000 0.000000 0.000000 10.000000 
chest 0.000000 0.000000 0.000000 0.000000 0.000000 0.000000 10.000000 
L_mid_tent01 0.000000 0.000000 0.000000 0.000000 0.000000 0.000000 10.000000 
R_mid_tent01 0.000000 0.000000 0.000000 0.000000 0.000000 0.000000 10.000000 
spine01 0.000000 0.000000 0.000000 0.000000 0.000000 0.000000 10.000000 
Bip01_Neck 0.000000 0.000000 0.000000 0.000000 0.000000 0.000000 10.000000 
L_humerus 0.000000 0.000000 0.000000 0.000000 0.000000 0.000000 10.000000 
R_humerus 0.000000 0.000000 0.000000 0.000000 0.000000 0.000000 10.000000 
weapon_bone 0.000000 0.000000 0.000000 0.000000 0.000000 0.000000 10.000000 
Bip01_Head 0.000000 0.000000 0.000000 0.000000 0.000000 0.000000 10.000000 
eye_left_bone 0.000000 0.000000 0.000000 0.000000 0.000000 0.000000 10.000000 
eye_right_bone 0.000000 0.000000 0.000000 0.000000 0.000000 0.000000 10.000000 
L_forearm 0.000000 0.000000 0.000000 0.000000 0.000000 0.000000 10.000000 
L_front_hand 0.000000 0.000000 0.000000 0.000000 0.000000 0.000000 10.000000 
L_weapon_bone 0.000000 0.000000 0.000000 0.000000 0.000000 0.000000 10.000000 
L_front_hand01_01 0.000000 0.000000 0.000000 0.000000 0.000000 0.000000 10.000000 
L_front_hand02_01 0.000000 0.000000 0.000000 0.000000 0.000000 0.000000 10.000000 
L_front_hand03_01 0.000000 0.000000 0.000000 0.000000 0.000000 0.000000 10.000000 
L_front_hand01_02 0.000000 0.000000 0.000000 0.000000 0.000000 0.000000 10.000000 
L_front_hand02_02 0.000000 0.000000 0.000000 0.000000 0.000000 0.000000 10.000000 
L_front_hand03_02 0.000000 0.000000 0.000000 0.000000 0.000000 0.000000 10.000000 
R_forearm 0.000000 0.000000 0.000000 0.000000 0.000000 0.000000 10.000000 
R_front_hand 0.000000 0.000000 0.000000 0.000000 0.000000 0.000000 10.000000 
R_weapon_bone 0.000000 0.000000 0.000000 0.000000 0.000000 0.000000 10.000000 
R_front_hand01_01 0.000000 0.000000 0.000000 0.000000 0.000000 0.000000 10.000000 
R_front_hand02_01 0.000000 0.000000 0.000000 0.000000 0.000000 0.000000 10.000000 
R_front_hand03_01 0.000000 0.000000 0.000000 0.000000 0.000000 0.000000 10.000000 
R_front_hand01_02 0.000000 0.000000 0.000000 0.000000 0.000000 0.000000 10.000000 
R_front_hand02_02 0.000000 0.000000 0.000000 0.000000 0.000000 0.000000 10.000000 
R_front_hand03_02 0.000000 0.000000 0.000000 0.000000 0.000000 0.000000 10.000000 
null_rope01_connect 0.000000 0.000000 0.000000 0.000000 0.000000 0.000000 10.000000 
Rope1_Seg01 0.000000 0.000000 0.000000 0.000000 0.000000 0.000000 10.000000 
Rope1_Seg02 0.000000 0.000000 0.000000 0.000000 0.000000 0.000000 10.000000 
Rope1_Seg03 0.000000 0.000000 0.000000 0.000000 0.000000 0.000000 10.000000 
Rope1_Seg04 0.000000 0.000000 0.000000 0.000000 0.000000 0.000000 10.000000 
Rope1_Seg05 0.000000 0.000000 0.000000 0.000000 0.000000 0.000000 10.000000 
Rope1_Seg06 0.000000 0.000000 0.000000 0.000000 0.000000 0.000000 10.000000 
Rope1_Seg07 0.000000 0.000000 0.000000 0.000000 0.000000 0.000000 10.000000 
Rope1_Seg09 0.000000 0.000000 0.000000 0.000000 0.000000 0.000000 10.000000 
L_mid_hand01 0.000000 0.000000 0.000000 0.000000 0.000000 0.000000 10.000000 
L_mid_hand02 0.000000 0.000000 0.000000 0.000000 0.000000 0.000000 10.000000 
L_mid_hand03 0.000000 0.000000 0.000000 0.000000 0.000000 0.000000 10.000000 
null_rope02_connect 0.000000 0.000000 0.000000 0.000000 0.000000 0.000000 10.000000 
Rope2_Seg01 0.000000 0.000000 0.000000 0.000000 0.000000 0.000000 10.000000 
Rope2_Seg02 0.000000 0.000000 0.000000 0.000000 0.000000 0.000000 10.000000 
Rope2_Seg03 0.000000 0.000000 0.000000 0.000000 0.000000 0.000000 10.000000 
Rope2_Seg04 0.000000 0.000000 0.000000 0.000000 0.000000 0.000000 10.000000 
Rope2_Seg05 0.000000 0.000000 0.000000 0.000000 0.000000 0.000000 10.000000 
Rope2_Seg06 0.000000 0.000000 0.000000 0.000000 0.000000 0.000000 10.000000 
Rope2_Seg07 0.000000 0.000000 0.000000 0.000000 0.000000 0.000000 10.000000 
Rope2_Seg09 0.000000 0.000000 0.000000 0.000000 0.000000 0.000000 10.000000 
R_mid_hand01 0.000000 0.000000 0.000000 0.000000 0.000000 0.000000 10.000000 
R_mid_hand02 0.000000 0.000000 0.000000 0.000000 0.000000 0.000000 10.000000 
R_mid_hand03 0.000000 0.000000 0.000000 0.000000 0.000000 0.000000 10.000000 
spine02 0.000000 0.000000 0.000000 0.000000 0.000000 0.000000 10.000000 
spine03 0.000000 0.000000 0.000000 0.000000 0.000000 0.000000 10.000000 
pelvis 0.000000 0.000000 0.000000 0.000000 0.000000 0.000000 10.000000 
null_rope03_connect 0.000000 0.000000 0.000000 0.000000 0.000000 0.000000 10.000000 
null_rope04_connect 0.000000 0.000000 0.000000 0.000000 0.000000 0.000000 10.000000 
Rope3_Seg01 0.000000 0.000000 0.000000 0.000000 0.000000 0.000000 10.000000 
Rope3_Seg02 0.000000 0.000000 0.000000 0.000000 0.000000 0.000000 10.000000 
Rope3_Seg03 0.000000 0.000000 0.000000 0.000000 0.000000 0.000000 10.000000 
Rope3_Seg04 0.000000 0.000000 0.000000 0.000000 0.000000 0.000000 10.000000 
Rope3_Seg05 0.000000 0.000000 0.000000 0.000000 0.000000 0.000000 10.000000 
Rope3_Seg06 0.000000 0.000000 0.000000 0.000000 0.000000 0.000000 10.000000 
Rope3_Seg07 0.000000 0.000000 0.000000 0.000000 0.000000 0.000000 10.000000 
Rope3_Seg08 0.000000 0.000000 0.000000 0.000000 0.000000 0.000000 10.000000 
Rope3_Seg09 0.000000 0.000000 0.000000 0.000000 0.000000 0.000000 10.000000 
R_rear_hand01 0.000000 0.000000 0.000000 0.000000 0.000000 0.000000 10.000000 
R_rear_hand02 0.000000 0.000000 0.000000 0.000000 0.000000 0.000000 10.000000 
R_rear_hand03 0.000000 0.000000 0.000000 0.000000 0.000000 0.000000 10.000000 
Rope4_Seg01 0.000000 0.000000 0.000000 0.000000 0.000000 0.000000 10.000000 
Rope4_Seg02 0.000000 0.000000 0.000000 0.000000 0.000000 0.000000 10.000000 
Rope4_Seg03 0.000000 0.000000 0.000000 0.000000 0.000000 0.000000 10.000000 
Rope4_Seg04 0.000000 0.000000 0.000000 0.000000 0.000000 0.000000 10.000000 
Rope4_Seg05 0.000000 0.000000 0.000000 0.000000 0.000000 0.000000 10.000000 
Rope4_Seg06 0.000000 0.000000 0.000000 0.000000 0.000000 0.000000 10.000000 
Rope4_Seg07 0.000000 0.000000 0.000000 0.000000 0.000000 0.000000 10.000000 
Rope4_Seg08 0.000000 0.000000 0.000000 0.000000 0.000000 0.000000 10.000000 
Rope4_Seg09 0.000000 0.000000 0.000000 0.000000 0.000000 0.000000 10.000000 
L_rear_hand01 0.000000 0.000000 0.000000 0.000000 0.000000 0.000000 10.000000 
L_rear_hand02 0.000000 0.000000 0.000000 0.000000 0.000000 0.000000 10.000000 
L_rear_hand03 0.000000 0.000000 0.000000 0.000000 0.000000 0.000000 10.000000 
#Beginning of Data. Separated by tabs
#Fr	Tx	Ty	Tz	Rx	Ry	Rz	SF
[MASTER]
18 0.000000 0.000000 0.000000 0.001660 0.001660 0.001660 0.000000
19 0.000000 0.000000 0.000000 0.001660 0.001660 0.001660 0.000000
[root]
18 -17.622217 -7.588799 1440.328247 -91.706375 7.188744 -90.037125 1440.456055
19 -21.298939 -5.236825 1437.401489 -91.706375 7.188744 -90.037125 1437.568970
[chest]
18 -84.512650 -34.090519 0.000000 -2.117274 0.462005 -179.268204 91.129311
19 -84.512650 -34.090519 0.000000 -2.117274 0.462005 -179.268204 91.129311
[L_mid_tent01]
18 27.299511 22.177458 -249.918259 -11.212391 7.173965 46.128521 252.381134
19 27.299511 22.177458 -249.918259 -11.212391 7.173965 46.128521 252.381134
[R_mid_tent01]
18 23.228794 24.509907 226.238495 -173.453110 -7.865565 48.320805 228.744751
19 23.228794 24.509907 226.238495 -173.453110 -7.865565 48.320805 228.744751
[spine01]
18 -0.361383 -0.195265 0.000000 -0.000001 -0.000007 22.052340 0.410763
19 -0.361383 -0.195265 0.000000 -0.000001 -0.000007 22.052340 0.410763
[Bip01_Neck]
18 165.484543 71.581718 0.000119 175.896118 1.177290 24.871183 180.302734
19 165.484543 71.581718 0.000119 175.896118 1.177290 24.871183 180.302734
[L_humerus]
18 -13.983130 -135.272980 -120.471481 177.317520 0.814944 177.327347 181.680161
19 -13.983130 -135.272980 -120.471481 177.317520 0.814944 177.327347 181.680161
[R_humerus]
18 -13.983309 -135.273102 125.287651 -179.087967 -0.295690 175.068390 184.909012
19 -13.983309 -135.273102 125.287651 -179.087967 -0.295690 175.068390 184.909012
[weapon_bone]
18 235.964890 -300.705902 0.000000 0.000000 -89.951546 -128.212341 382.234833
19 235.964890 -300.705902 0.000000 0.000000 -89.951546 -128.212341 382.234833
[Bip01_Head]
18 97.775497 22.186661 5.309563 3.366012 3.339071 -18.399078 100.401627
19 97.775497 22.186661 5.309563 3.366013 3.339072 -18.399080 100.401627
[eye_left_bone]
18 -24.626970 125.451866 -64.772606 0.000000 -90.000000 -99.840431 143.318359
19 -24.626970 125.451866 -64.772606 0.000000 -90.000000 -99.840431 143.318359
[eye_right_bone]
18 -24.626970 125.451866 64.327362 0.000000 -89.965736 80.156380 143.117676
19 -24.626970 125.451866 64.327362 0.000000 -89.965736 80.156380 143.117676
[L_forearm]
18 322.776093 0.000000 -0.000119 0.001372 -0.001904 -161.553818 322.776093
19 322.776093 0.000000 -0.000119 0.001372 -0.001904 -161.553818 322.776093
[L_front_hand]
18 241.149185 -0.042021 -3.300071 -179.659958 -2.242151 -0.019832 241.171753
19 241.149185 -0.042021 -3.300071 -179.659958 -2.242151 -0.019832 241.171753
[L_weapon_bone]
18 156.183838 0.000000 0.000000 0.000014 0.000007 0.000001 156.183838
19 156.183838 0.000000 0.000000 0.000014 0.000007 0.000001 156.183838
[L_front_hand01_01]
18 86.095154 20.947098 -0.655860 0.405585 -0.442306 -4.620490 88.609184
19 86.095154 20.947098 -0.655860 0.405585 -0.442306 -4.620490 88.609184
[L_front_hand02_01]
18 86.935165 -11.437475 24.513514 116.959450 3.630817 1.495453 91.046425
19 86.935165 -11.437475 24.513514 116.959450 3.630817 1.495453 91.046425
[L_front_hand03_01]
18 86.637497 -14.123976 -20.424902 -118.419884 -4.660555 -0.155069 90.126129
19 86.637497 -14.123976 -20.424902 -118.419884 -4.660555 -0.155069 90.126129
[L_front_hand01_02]
18 71.020905 -0.000179 0.000030 0.000004 -0.000005 -8.379269 71.020905
19 71.020905 -0.000179 0.000030 0.000004 -0.000005 -8.379269 71.020905
[L_front_hand02_02]
18 71.020927 -0.000119 0.000060 -0.000005 -0.000004 -8.379259 71.020927
19 71.020927 -0.000119 0.000060 -0.000005 -0.000004 -8.379259 71.020927
[L_front_hand03_02]
18 71.020905 -0.000060 0.000060 0.000015 -0.000040 -8.379267 71.020905
19 71.020905 -0.000060 0.000060 0.000015 -0.000040 -8.379267 71.020905
[R_forearm]
18 322.776428 -0.000060 0.000030 0.066610 0.203476 -163.260239 322.776428
19 322.776428 -0.000060 0.000030 0.066610 0.203476 -163.260239 322.776428
[R_front_hand]
18 238.847015 -0.006795 2.210259 -0.270529 1.703932 2.322530 238.857239
19 238.847015 -0.006795 2.210259 -0.270529 1.703932 2.322530 238.857239
[R_weapon_bone]
18 155.664093 0.002503 -0.000030 0.003487 0.001180 -90.988930 155.664078
19 155.664093 0.002503 -0.000030 0.003487 0.001180 -90.988930 155.664078
[R_front_hand01_01]
18 87.624611 14.231146 22.918642 -116.960213 3.496675 -1.324139 91.683487
19 87.624611 14.231146 22.918642 -116.960213 3.496675 -1.324139 91.683487
[R_front_hand02_01]
18 89.356956 14.367283 -19.491137 118.419647 -4.257089 0.609827 92.579636
19 89.356956 14.367283 -19.491137 118.419647 -4.257089 0.609827 92.579636
[R_front_hand03_01]
18 87.286232 -22.307278 -0.143439 -0.387970 -0.231462 4.232001 90.091743
19 87.286232 -22.307278 -0.143439 -0.387970 -0.231462 4.232001 90.091743
[R_front_hand01_02]
18 71.020905 0.000060 0.000119 -0.000005 -0.000020 8.379271 71.020905
19 71.020905 0.000060 0.000119 -0.000005 -0.000020 8.379271 71.020905
[R_front_hand02_02]
18 71.020844 -0.000030 -0.000119 0.000000 -0.000021 8.379271 71.020836
19 71.020844 -0.000030 -0.000119 0.000000 -0.000021 8.379271 71.020836
[R_front_hand03_02]
18 71.020905 0.000000 0.000030 -0.000001 -0.000020 8.379275 71.020905
19 71.020905 0.000000 0.000030 -0.000001 -0.000020 8.379275 71.020905
[null_rope01_connect]
18 328.732483 0.000000 -0.000238 160.552872 -75.066147 -124.625038 328.732483
19 328.732483 0.000000 -0.000238 160.552872 -75.066147 -124.625038 328.732483
[Rope1_Seg01]
18 0.000000 0.000000 0.000000 -141.354080 51.261288 -124.856873 0.000000
19 0.000000 0.000000 0.000000 -142.544128 51.421677 -125.485794 0.000000
[Rope1_Seg02]
18 139.999863 -0.000179 0.000000 46.366070 -5.864689 -20.062616 139.999863
19 139.999863 -0.000179 0.000000 44.826302 -4.843617 -19.659260 139.999863
[Rope1_Seg03]
18 139.999924 0.000060 -0.000060 29.339153 -13.295061 -8.217271 139.999924
19 139.999924 0.000060 -0.000060 30.873808 -12.152931 -8.876217 139.999924
[Rope1_Seg04]
18 139.999924 -0.000060 -0.000119 12.605743 -10.934008 -1.389570 139.999924
19 139.999924 -0.000060 -0.000119 13.998435 -10.397260 -2.088771 139.999924
[Rope1_Seg05]
18 139.999832 0.000119 -0.000060 -0.383318 -1.204190 1.801152 139.999832
19 139.999832 0.000119 -0.000060 -0.282757 -1.689715 2.177357 139.999832
[Rope1_Seg06]
18 139.999954 0.000119 -0.000060 -8.273667 5.897002 3.691767 139.999954
19 139.999954 0.000119 -0.000060 -8.141886 4.433912 4.942436 139.999954
[Rope1_Seg07]
18 139.999985 0.000060 0.000000 -12.835328 8.568848 6.697426 139.999985
19 139.999985 0.000060 0.000000 -10.579124 5.745438 7.756618 139.999985
[Rope1_Seg09]
18 121.602913 0.000119 -0.000089 -89.793175 -1.359789 0.847147 121.602913
19 121.602913 0.000119 -0.000089 -89.793175 -1.359789 0.847147 121.602913
[L_mid_hand01]
18 103.859421 1.038730 8.195221 106.855484 -31.239275 -9.461397 104.187431
19 103.859421 1.038730 8.195221 106.855484 -31.239275 -9.461397 104.187431
[L_mid_hand02]
18 105.572853 -4.139662 -10.864139 -142.331345 25.752670 -28.774628 106.211075
19 105.572853 -4.139662 -10.864139 -142.331345 25.752670 -28.774628 106.211075
[L_mid_hand03]
18 104.641464 17.579376 -3.913581 -16.122810 9.734291 34.223598 106.179977
19 104.641464 17.579376 -3.913581 -16.122810 9.734291 34.223598 106.179977
[null_rope02_connect]
18 328.732849 0.000179 -0.000119 174.610336 81.478409 -39.424759 328.732849
19 328.732849 0.000179 -0.000119 174.610336 81.478409 -39.424759 328.732849
[Rope2_Seg01]
18 0.000076 0.000111 0.000153 162.912247 50.451336 -67.612518 0.000203
19 0.000076 0.000111 0.000153 163.717972 51.051834 -67.399742 0.000203
[Rope2_Seg02]
18 139.999741 -0.000060 -0.000119 -14.350815 6.915118 8.699072 139.999756
19 139.999741 -0.000060 -0.000119 -14.020682 7.838414 7.719973 139.999756
[Rope2_Seg03]
18 140.000107 0.000030 0.000000 -17.992794 10.189706 8.314297 140.000107
19 140.000107 0.000030 0.000000 -18.235310 12.079301 5.767265 140.000107
[Rope2_Seg04]
18 139.999802 0.000000 -0.000060 -10.166669 -10.389110 14.294944 139.999802
19 139.999802 0.000000 -0.000060 -13.479768 -10.454640 16.568134 139.999802
[Rope2_Seg05]
18 139.999985 -0.000060 0.000119 0.231572 -9.819710 3.566305 139.999985
19 139.999985 -0.000060 0.000119 -0.231221 -12.647998 5.199099 139.999985
[Rope2_Seg06]
18 139.999893 -0.000030 -0.000119 -0.337559 -2.931678 1.798953 139.999893
19 139.999893 -0.000030 -0.000119 -0.414191 -3.587128 2.216691 139.999893
[Rope2_Seg07]
18 139.999893 0.000060 -0.000060 -0.192410 -1.740082 1.053212 139.999893
19 139.999893 0.000060 -0.000060 -0.219745 -2.102998 1.281926 139.999893
[Rope2_Seg09]
18 121.338966 0.000089 -0.000060 33.793236 -1.359788 -0.847141 121.338966
19 121.338966 0.000089 -0.000060 33.793236 -1.359788 -0.847141 121.338966
[R_mid_hand01]
18 104.680779 11.144459 -10.335981 -41.523792 25.424656 28.595957 105.778534
19 104.680779 11.144459 -10.335981 -41.523792 25.424656 28.595957 105.778534
[R_mid_hand02]
18 104.070427 2.443552 8.231699 72.847389 -32.746803 10.013901 104.424065
19 104.070427 2.443552 8.231699 72.847389 -32.746803 10.013901 104.424065
[R_mid_hand03]
18 106.028137 -11.221827 -5.996406 -167.901306 10.259192 -37.009720 106.788818
19 106.028137 -11.221827 -5.996406 -167.901306 10.259192 -37.009720 106.788818
[spine02]
18 129.756927 0.001550 0.000119 0.360061 -4.044797 -12.915058 129.756927
19 129.756927 0.001550 0.000119 0.360061 -4.044797 -12.915058 129.756927
[spine03]
18 78.613846 0.087372 -4.898873 1.896495 3.831288 16.473045 78.766380
19 78.613846 0.087372 -4.898873 1.896495 3.831288 16.473045 78.766380
[pelvis]
18 169.435242 0.051022 0.000000 -0.060465 -0.180225 14.087930 169.435257
19 169.435242 0.051022 0.000000 -0.060465 -0.180225 14.087930 169.435257
[null_rope03_connect]
18 -1.257226 -2.466202 137.391083 -168.629776 -89.386429 -148.244614 137.418976
19 -1.257226 -2.466202 137.391083 -168.629776 -89.386429 -148.244614 137.418976
[null_rope04_connect]
18 -1.259640 -2.480268 -137.844437 -168.629776 -89.386429 -148.244614 137.872513
19 -1.259640 -2.480268 -137.844437 -168.629776 -89.386429 -148.244614 137.872513
[Rope3_Seg01]
18 0.000000 0.000000 0.000000 -140.663971 26.889399 -98.151054 0.000000
19 0.000000 0.000000 0.000000 -141.381195 26.208588 -100.762283 0.000000
[Rope3_Seg02]
18 139.999924 -0.000119 0.000060 1.339620 -0.609993 -6.577481 139.999924
19 139.999924 -0.000119 0.000060 1.236689 -1.637221 -7.004769 139.999924
[Rope3_Seg03]
18 139.999924 -0.000119 0.000119 1.276360 -1.323945 -9.764152 139.999924
19 139.999924 -0.000119 0.000119 1.208559 -2.765383 -10.257471 139.999924
[Rope3_Seg04]
18 139.999924 0.000119 0.000000 1.023683 -5.611585 -22.615906 139.999924
19 139.999924 0.000119 0.000000 1.517972 -8.186608 -22.655884 139.999924
[Rope3_Seg05]
18 139.999924 -0.000238 0.000060 0.582422 7.347947 8.948902 139.999924
19 139.999924 -0.000238 0.000060 0.187154 6.438703 6.202124 139.999924
[Rope3_Seg06]
18 139.999893 -0.000119 -0.000060 2.011603 11.109153 22.260063 139.999893
19 139.999893 -0.000119 -0.000060 2.812842 12.962242 22.019663 139.999893
[Rope3_Seg07]
18 139.999771 0.000060 -0.000119 0.550026 4.798328 8.100025 139.999771
19 139.999771 0.000060 -0.000119 1.018827 5.663647 8.105575 139.999771
[Rope3_Seg08]
18 139.999985 -0.000060 0.000000 0.404545 2.693412 4.499327 139.999985
19 139.999985 -0.000060 0.000000 0.755164 3.263679 4.546638 139.999985
[Rope3_Seg09]
18 90.185997 -0.000179 -0.000060 89.793228 -1.359877 -0.847183 90.185997
19 90.185997 -0.000179 -0.000060 89.793228 -1.359877 -0.847183 90.185997
[R_rear_hand01]
18 103.366196 -6.073594 -10.757982 -161.551193 16.666374 -30.088671 104.101845
19 103.366196 -6.073594 -10.757982 -161.551193 16.666374 -30.088671 104.101845
[R_rear_hand02]
18 100.509819 12.039542 -7.992327 -34.280552 19.289745 28.875523 101.543350
19 100.509819 12.039542 -7.992327 -34.280552 19.289745 28.875523 101.543350
[R_rear_hand03]
18 101.539970 5.215704 5.435467 83.366440 -30.933914 7.284830 101.819031
19 101.539970 5.215704 5.435467 83.366440 -30.933914 7.284830 101.819031
[Rope4_Seg01]
18 0.000010 0.000038 -0.000114 46.020081 15.317440 -106.840607 0.000121
19 0.000010 0.000038 -0.000114 45.124340 15.446093 -110.114265 0.000121
[Rope4_Seg02]
18 139.999985 0.000060 0.000119 0.470610 9.782453 2.926217 139.999985
19 139.999985 0.000060 0.000119 0.477817 10.351696 4.212325 139.999985
[Rope4_Seg03]
18 139.999924 0.000000 -0.000238 1.223409 12.857366 4.166961 139.999924
19 139.999924 0.000000 -0.000238 1.124147 13.884565 5.935624 139.999924
[Rope4_Seg04]
18 139.999985 0.000000 0.000119 3.399576 19.788599 7.499925 139.999985
19 139.999985 0.000000 0.000119 2.847513 21.260691 10.237430 139.999985
[Rope4_Seg05]
18 139.999802 -0.000060 -0.000119 1.463189 -5.507575 -4.422405 139.999802
19 139.999802 -0.000060 -0.000119 1.705648 -3.995100 -3.849642 139.999802
[Rope4_Seg06]
18 139.999924 0.000000 0.000060 1.782120 -20.151897 -10.304816 139.999924
19 139.999924 0.000000 0.000060 2.753506 -19.986147 -11.880082 139.999924
[Rope4_Seg07]
18 139.999802 0.000000 0.000000 0.511908 -8.290854 -4.504365 139.999802
19 139.999802 0.000000 0.000000 0.673162 -8.496351 -5.093677 139.999802
[Rope4_Seg08]
18 139.999924 0.000000 0.000119 -1.336551 -4.644844 -2.528294 139.999924
19 139.999924 0.000000 0.000119 -1.293729 -4.706825 -2.816566 139.999924
[Rope4_Seg09]
18 90.185791 0.000060 0.000060 -135.617828 2.228885 0.850567 90.185791
19 90.185791 0.000060 0.000060 -135.617828 2.228885 0.850567 90.185791
[L_rear_hand01]
18 101.696655 -8.392275 -7.654577 -34.454281 -18.946800 151.655121 102.329041
19 101.696655 -8.392275 -7.654577 -34.454281 -18.946800 151.655121 102.329041
[L_rear_hand02]
18 102.726799 -1.568258 5.773216 83.407906 30.330435 172.796509 102.900848
19 102.726799 -1.568258 5.773216 83.407906 30.330435 172.796509 102.900848
[L_rear_hand03]
18 104.552910 9.721220 -10.420293 -161.379868 -16.473232 -150.512238 105.519653
19 104.552910 9.721220 -10.420293 -161.379868 -16.473232 -150.512238 105.519653
